ply
format ascii 1.0
comment Generated by the CGAL library
element vertex 68
property double x
property double y
property double z
property double x_origin
property double y_origin
property double z_origin
end_header
0 -2 -0.1 0 -2 500 
-1.04782 -1.99983 -0.276073 0 -1.99983 500 
-2.09346 -1.99967 0.246764 0 -1.99967 500 
-3.13694 -1.9995 0.768518 0 -1.9995 500 
3.00632 -1.50048 0.752921 0 -1.50048 500 
1.96263 -1.50031 0.242558 0 -1.50031 500 
0.916276 -1.50015 0.0332698 0 -1.50015 500 
-0.130948 -1.49998 -0.163093 0 -1.49998 500 
-1.1783 -1.49981 -0.0621841 0 -1.49981 500 
-2.22379 -1.49965 0.361931 0 -1.49965 500 
-3.26689 -1.49948 0.883498 0 -1.49948 500 
-4.30577 -1.49931 1.64489 0 -1.49931 500 
3.91579 -1.00063 1.45758 0 -1.00063 500 
2.87455 -1.00046 0.937045 0 -1.00046 500 
1.83116 -1.00029 0.415433 0 -1.00029 500 
0.785465 -1.00013 -0.021466 0 -1.00013 500 
-0.261876 -0.999958 -0.126183 0 -0.999958 500 
-1.30864 -0.999792 0.157355 0 -0.999792 500 
-2.3537 -0.999625 0.554532 0 -0.999625 500 
-3.39598 -0.999458 1.11676 0 -0.999458 500 
-4.43356 -0.999292 1.94681 0 -0.999292 500 
3.78386 -0.500604 1.64163 0 -0.500604 500 
2.74311 -0.500438 1.0776 0 -0.500438 500 
1.70049 -0.500271 0.377521 0 -0.500271 500 
0.654506 -0.500104 0.0154402 0 -0.500104 500 
-0.392732 -0.499937 -0.0207407 0 -0.499937 500 
-1.43888 -0.499771 0.376851 0 -0.499771 500 
-2.48415 -0.499604 0.616458 0 -0.499604 500 
-3.52604 -0.499437 1.19581 0 -0.499437 500 
-4.56325 -0.499271 2.02556 0 -0.499271 500 
4.69111 -0.000750031 2.29274 0 -0.000750031 500 
3.65371 -0.000583358 1.59617 0 -0.000583358 500 
2.61343 -0.000416684 0.897664 0 -0.000416684 500 
1.57025 -0.00025001 0.197213 0 -0.00025001 500 
0.523566 -8.33368e-05 0.0523483 0 -8.33368e-05 500 
-0.5235 8.33368e-05 0.115158 0 8.33368e-05 500 
-1.56978 0.00025001 0.345317 0 0.00025001 500 
-2.61489 0.000416684 0.618952 0 0.000416684 500 
-3.65606 0.000583358 1.27482 0 0.000583358 500 
4.56217 0.499271 2.14359 0 0.499271 500 
3.52448 0.499437 1.41719 0 0.499437 500 
2.48365 0.499604 0.717666 0 0.499604 500 
1.4394 0.499771 0.193917 0 0.499771 500 
0.392598 0.499937 0.149981 0 0.499937 500 
-0.65433 0.500104 0.150031 0 0.500104 500 
-1.70074 0.500271 0.304125 0 0.500271 500 
-2.74507 0.500438 0.722061 0 0.500438 500 
-3.78604 0.500604 1.3538 0 0.500604 500 
4.43306 0.999292 2.00321 0 0.999292 500 
3.3949 0.999458 1.27648 0 0.999458 500 
2.35373 0.999625 0.547648 0 0.999625 500 
1.30827 0.999792 0.299937 0 0.999792 500 
0.261653 0.999958 0.299987 0 0.999958 500 
-0.78496 1.00013 0.299912 0 1.00013 500 
-1.83158 1.00029 0.299796 0 1.00029 500 
-2.87519 1.00046 0.824933 0 1.00046 500 
-3.91585 1.00063 1.44926 0 1.00063 500 
4.3056 1.49931 1.66426 0 1.49931 500 
3.26654 1.49948 0.936841 0 1.49948 500 
2.22345 1.49965 0.439343 0 1.49965 500 
1.1781 1.49981 0.0212207 0 1.49981 500 
0.130918 1.49998 -0.0499854 0 1.49998 500 
-0.916429 1.50015 -0.0501021 0 1.50015 500 
-1.96265 1.50031 0.238764 0 1.50031 500 
-3.00662 1.50048 0.703778 0 1.50048 500 
3.1364 1.9995 0.854508 0 1.9995 500 
2.09266 1.99967 0.437032 0 1.99967 500 
1.0472 1.99983 0.0188646 0 1.99983 500 
