ply
format ascii 1.0
comment Generated by the CGAL library
element vertex 68
property double x
property double y
property double z
end_header
0 -2 -0.1 
-1.04782 -1.99983 -0.276073 
-2.09346 -1.99967 0.246764 
-3.13694 -1.9995 0.768518 
3.00632 -1.50048 0.752921 
1.96263 -1.50031 0.242558 
0.916276 -1.50015 0.0332698 
-0.130948 -1.49998 -0.163093 
-1.1783 -1.49981 -0.0621841 
-2.22379 -1.49965 0.361931 
-3.26689 -1.49948 0.883498 
-4.30577 -1.49931 1.64489 
3.91579 -1.00063 1.45758 
2.87455 -1.00046 0.937045 
1.83116 -1.00029 0.415433 
0.785465 -1.00013 -0.021466 
-0.261876 -0.999958 -0.126183 
-1.30864 -0.999792 0.157355 
-2.3537 -0.999625 0.554532 
-3.39598 -0.999458 1.11676 
-4.43356 -0.999292 1.94681 
3.78386 -0.500604 1.64163 
2.74311 -0.500438 1.0776 
1.70049 -0.500271 0.377521 
0.654506 -0.500104 0.0154402 
-0.392732 -0.499937 -0.0207407 
-1.43888 -0.499771 0.376851 
-2.48415 -0.499604 0.616458 
-3.52604 -0.499437 1.19581 
-4.56325 -0.499271 2.02556 
4.69111 -0.000750031 2.29274 
3.65371 -0.000583358 1.59617 
2.61343 -0.000416684 0.897664 
1.57025 -0.00025001 0.197213 
0.523566 -8.33368e-05 0.0523483 
-0.5235 8.33368e-05 0.115158 
-1.56978 0.00025001 0.345317 
-2.61489 0.000416684 0.618952 
-3.65606 0.000583358 1.27482 
4.56217 0.499271 2.14359 
3.52448 0.499437 1.41719 
2.48365 0.499604 0.717666 
1.4394 0.499771 0.193917 
0.392598 0.499937 0.149981 
-0.65433 0.500104 0.150031 
-1.70074 0.500271 0.304125 
-2.74507 0.500438 0.722061 
-3.78604 0.500604 1.3538 
4.43306 0.999292 2.00321 
3.3949 0.999458 1.27648 
2.35373 0.999625 0.547648 
1.30827 0.999792 0.299937 
0.261653 0.999958 0.299987 
-0.78496 1.00013 0.299912 
-1.83158 1.00029 0.299796 
-2.87519 1.00046 0.824933 
-3.91585 1.00063 1.44926 
4.3056 1.49931 1.66426 
3.26654 1.49948 0.936841 
2.22345 1.49965 0.439343 
1.1781 1.49981 0.0212207 
0.130918 1.49998 -0.0499854 
-0.916429 1.50015 -0.0501021 
-1.96265 1.50031 0.238764 
-3.00662 1.50048 0.703778 
3.1364 1.9995 0.854508 
2.09266 1.99967 0.437032 
1.0472 1.99983 0.0188646 
